<mxfile host="app.diagrams.net" modified="2024-02-23T11:56:15.101Z" agent="Mozilla/5.0 (Macintosh; Intel Mac OS X 10_15_7) AppleWebKit/537.36 (KHTML, like Gecko) Chrome/121.0.0.0 Safari/537.36" etag="-AWcflkcK9_oQJRPNQR0" version="23.1.6" type="github">
  <diagram name="ページ1" id="NGzxUwwTG2sEnfQUlWVR">
    <mxGraphModel dx="777" dy="607" grid="1" gridSize="10" guides="1" tooltips="1" connect="1" arrows="1" fold="1" page="0" pageScale="1" pageWidth="827" pageHeight="1169" math="0" shadow="0">
      <root>
        <mxCell id="0" />
        <object label="グループ" id="1">
          <mxCell style="" parent="0" />
        </object>
        <mxCell id="9TmYdh2y9nuFqTiCn1eM-13" value="Security group" style="fillColor=none;strokeColor=#DD3522;verticalAlign=top;fontStyle=0;fontColor=#DD3522;whiteSpace=wrap;html=1;fontSize=16;" parent="1" vertex="1">
          <mxGeometry x="-28" y="226" width="509" height="175" as="geometry" />
        </mxCell>
        <mxCell id="dsVx2p4obPxfQ1tSQ4eI-1" value="AWS Cloud" style="points=[[0,0],[0.25,0],[0.5,0],[0.75,0],[1,0],[1,0.25],[1,0.5],[1,0.75],[1,1],[0.75,1],[0.5,1],[0.25,1],[0,1],[0,0.75],[0,0.5],[0,0.25]];outlineConnect=0;gradientColor=none;html=1;whiteSpace=wrap;fontSize=12;fontStyle=1;container=1;pointerEvents=0;collapsible=0;recursiveResize=0;shape=mxgraph.aws4.group;grIcon=mxgraph.aws4.group_aws_cloud_alt;strokeColor=#232F3E;fillColor=none;verticalAlign=top;align=left;spacingLeft=30;fontColor=#232F3E;dashed=0;" parent="1" vertex="1">
          <mxGeometry x="-82" y="-175" width="623" height="648" as="geometry" />
        </mxCell>
        <mxCell id="9TmYdh2y9nuFqTiCn1eM-6" value="Region" style="points=[[0,0],[0.25,0],[0.5,0],[0.75,0],[1,0],[1,0.25],[1,0.5],[1,0.75],[1,1],[0.75,1],[0.5,1],[0.25,1],[0,1],[0,0.75],[0,0.5],[0,0.25]];outlineConnect=0;gradientColor=none;html=1;whiteSpace=wrap;fontSize=12;fontStyle=0;container=1;pointerEvents=0;collapsible=0;recursiveResize=0;shape=mxgraph.aws4.group;grIcon=mxgraph.aws4.group_region;strokeColor=#00A4A6;fillColor=none;verticalAlign=top;align=left;spacingLeft=30;fontColor=#147EBA;dashed=1;" parent="1" vertex="1">
          <mxGeometry x="-62" y="-136" width="585" height="592" as="geometry" />
        </mxCell>
        <mxCell id="9TmYdh2y9nuFqTiCn1eM-7" value="VPC" style="points=[[0,0],[0.25,0],[0.5,0],[0.75,0],[1,0],[1,0.25],[1,0.5],[1,0.75],[1,1],[0.75,1],[0.5,1],[0.25,1],[0,1],[0,0.75],[0,0.5],[0,0.25]];outlineConnect=0;gradientColor=none;html=1;whiteSpace=wrap;fontSize=12;fontStyle=0;container=1;pointerEvents=0;collapsible=0;recursiveResize=0;shape=mxgraph.aws4.group;grIcon=mxgraph.aws4.group_vpc2;strokeColor=#8C4FFF;fillColor=none;verticalAlign=top;align=left;spacingLeft=30;fontColor=#AAB7B8;dashed=0;" parent="1" vertex="1">
          <mxGeometry x="-41" y="-95" width="546" height="529" as="geometry" />
        </mxCell>
        <mxCell id="9TmYdh2y9nuFqTiCn1eM-16" value="" style="sketch=0;points=[[0,0,0],[0.25,0,0],[0.5,0,0],[0.75,0,0],[1,0,0],[0,1,0],[0.25,1,0],[0.5,1,0],[0.75,1,0],[1,1,0],[0,0.25,0],[0,0.5,0],[0,0.75,0],[1,0.25,0],[1,0.5,0],[1,0.75,0]];outlineConnect=0;fontColor=#232F3E;fillColor=#ED7100;strokeColor=#ffffff;dashed=0;verticalLabelPosition=bottom;verticalAlign=top;align=center;html=1;fontSize=12;fontStyle=0;aspect=fixed;shape=mxgraph.aws4.resourceIcon;resIcon=mxgraph.aws4.lambda;" parent="9TmYdh2y9nuFqTiCn1eM-7" vertex="1">
          <mxGeometry x="80" y="175" width="82" height="82" as="geometry" />
        </mxCell>
        <mxCell id="9TmYdh2y9nuFqTiCn1eM-20" value="" style="sketch=0;points=[[0,0,0],[0.25,0,0],[0.5,0,0],[0.75,0,0],[1,0,0],[0,1,0],[0.25,1,0],[0.5,1,0],[0.75,1,0],[1,1,0],[0,0.25,0],[0,0.5,0],[0,0.75,0],[1,0.25,0],[1,0.5,0],[1,0.75,0]];outlineConnect=0;fontColor=#232F3E;fillColor=#E7157B;strokeColor=#ffffff;dashed=0;verticalLabelPosition=bottom;verticalAlign=top;align=center;html=1;fontSize=12;fontStyle=0;aspect=fixed;shape=mxgraph.aws4.resourceIcon;resIcon=mxgraph.aws4.eventbridge;" parent="9TmYdh2y9nuFqTiCn1eM-7" vertex="1">
          <mxGeometry x="403" y="177" width="78" height="78" as="geometry" />
        </mxCell>
        <mxCell id="9TmYdh2y9nuFqTiCn1eM-23" value="" style="endArrow=classic;html=1;rounded=0;fontSize=12;startSize=8;endSize=8;curved=1;exitX=0;exitY=0.5;exitDx=0;exitDy=0;exitPerimeter=0;entryX=1;entryY=0.5;entryDx=0;entryDy=0;entryPerimeter=0;" parent="9TmYdh2y9nuFqTiCn1eM-7" source="9TmYdh2y9nuFqTiCn1eM-20" target="9TmYdh2y9nuFqTiCn1eM-16" edge="1">
          <mxGeometry width="50" height="50" relative="1" as="geometry">
            <mxPoint x="137" y="108" as="sourcePoint" />
            <mxPoint x="187" y="58" as="targetPoint" />
          </mxGeometry>
        </mxCell>
        <mxCell id="tWGx9uNjl3ON7w9gQxQw-1" value="trigger" style="edgeLabel;html=1;align=center;verticalAlign=middle;resizable=0;points=[];" vertex="1" connectable="0" parent="9TmYdh2y9nuFqTiCn1eM-23">
          <mxGeometry x="-0.0343" relative="1" as="geometry">
            <mxPoint as="offset" />
          </mxGeometry>
        </mxCell>
        <mxCell id="9TmYdh2y9nuFqTiCn1eM-19" value="" style="endArrow=classic;html=1;rounded=0;fontSize=12;startSize=8;endSize=8;curved=1;entryX=0.5;entryY=0;entryDx=0;entryDy=0;entryPerimeter=0;exitX=0.5;exitY=1;exitDx=0;exitDy=0;exitPerimeter=0;" parent="9TmYdh2y9nuFqTiCn1eM-7" source="9TmYdh2y9nuFqTiCn1eM-16" target="9TmYdh2y9nuFqTiCn1eM-14" edge="1">
          <mxGeometry width="50" height="50" relative="1" as="geometry">
            <mxPoint x="219" y="268" as="sourcePoint" />
            <mxPoint x="269" y="218" as="targetPoint" />
          </mxGeometry>
        </mxCell>
        <mxCell id="9TmYdh2y9nuFqTiCn1eM-14" value="" style="sketch=0;points=[[0,0,0],[0.25,0,0],[0.5,0,0],[0.75,0,0],[1,0,0],[0,1,0],[0.25,1,0],[0.5,1,0],[0.75,1,0],[1,1,0],[0,0.25,0],[0,0.5,0],[0,0.75,0],[1,0.25,0],[1,0.5,0],[1,0.75,0]];outlineConnect=0;fontColor=#232F3E;fillColor=#ED7100;strokeColor=#ffffff;dashed=0;verticalLabelPosition=bottom;verticalAlign=top;align=center;html=1;fontSize=12;fontStyle=0;aspect=fixed;shape=mxgraph.aws4.resourceIcon;resIcon=mxgraph.aws4.ec2;" parent="9TmYdh2y9nuFqTiCn1eM-7" vertex="1">
          <mxGeometry x="80" y="375" width="82" height="82" as="geometry" />
        </mxCell>
        <mxCell id="9TmYdh2y9nuFqTiCn1eM-21" style="edgeStyle=none;curved=1;rounded=0;orthogonalLoop=1;jettySize=auto;html=1;exitX=0.5;exitY=0;exitDx=0;exitDy=0;fontSize=12;startSize=8;endSize=8;" parent="1" source="9TmYdh2y9nuFqTiCn1eM-13" target="9TmYdh2y9nuFqTiCn1eM-13" edge="1">
          <mxGeometry relative="1" as="geometry" />
        </mxCell>
        <object label="インスタンス" id="9TmYdh2y9nuFqTiCn1eM-8">
          <mxCell parent="0" />
        </object>
        <mxCell id="9TmYdh2y9nuFqTiCn1eM-15" value="" style="sketch=0;points=[[0,0,0],[0.25,0,0],[0.5,0,0],[0.75,0,0],[1,0,0],[0,1,0],[0.25,1,0],[0.5,1,0],[0.75,1,0],[1,1,0],[0,0.25,0],[0,0.5,0],[0,0.75,0],[1,0.25,0],[1,0.5,0],[1,0.75,0]];outlineConnect=0;fontColor=#232F3E;fillColor=#C925D1;strokeColor=#ffffff;dashed=0;verticalLabelPosition=bottom;verticalAlign=top;align=center;html=1;fontSize=12;fontStyle=0;aspect=fixed;shape=mxgraph.aws4.resourceIcon;resIcon=mxgraph.aws4.rds;" parent="9TmYdh2y9nuFqTiCn1eM-8" vertex="1">
          <mxGeometry x="321" y="280" width="78" height="78" as="geometry" />
        </mxCell>
        <object label="ネット" id="9TmYdh2y9nuFqTiCn1eM-25">
          <mxCell parent="0" />
        </object>
        <mxCell id="9TmYdh2y9nuFqTiCn1eM-28" value="" style="group" parent="9TmYdh2y9nuFqTiCn1eM-25" vertex="1" connectable="0">
          <mxGeometry x="-350" y="80" width="120" height="80" as="geometry" />
        </mxCell>
        <mxCell id="9TmYdh2y9nuFqTiCn1eM-26" value="" style="rounded=0;whiteSpace=wrap;html=1;fontSize=16;fillColor=none;" parent="9TmYdh2y9nuFqTiCn1eM-28" vertex="1">
          <mxGeometry width="120" height="80" as="geometry" />
        </mxCell>
        <mxCell id="9TmYdh2y9nuFqTiCn1eM-27" value="☀️&amp;nbsp; 天気予報API" style="text;html=1;strokeColor=none;fillColor=none;align=center;verticalAlign=middle;whiteSpace=wrap;rounded=0;fontSize=16;" parent="9TmYdh2y9nuFqTiCn1eM-28" vertex="1">
          <mxGeometry y="20" width="120" height="40" as="geometry" />
        </mxCell>
        <mxCell id="9TmYdh2y9nuFqTiCn1eM-31" value="" style="endArrow=classic;html=1;rounded=0;fontSize=12;startSize=8;endSize=8;curved=1;exitX=1;exitY=0.75;exitDx=0;exitDy=0;entryX=0;entryY=0.75;entryDx=0;entryDy=0;entryPerimeter=0;" parent="9TmYdh2y9nuFqTiCn1eM-25" source="9TmYdh2y9nuFqTiCn1eM-26" target="9TmYdh2y9nuFqTiCn1eM-16" edge="1">
          <mxGeometry relative="1" as="geometry">
            <mxPoint x="-13" y="134" as="sourcePoint" />
            <mxPoint x="87" y="134" as="targetPoint" />
          </mxGeometry>
        </mxCell>
        <mxCell id="9TmYdh2y9nuFqTiCn1eM-32" value="Response" style="edgeLabel;resizable=0;html=1;align=center;verticalAlign=middle;fontSize=16;" parent="9TmYdh2y9nuFqTiCn1eM-31" connectable="0" vertex="1">
          <mxGeometry relative="1" as="geometry" />
        </mxCell>
        <mxCell id="9TmYdh2y9nuFqTiCn1eM-33" value="" style="endArrow=classic;html=1;rounded=0;fontSize=12;startSize=8;endSize=8;curved=1;entryX=1;entryY=0.25;entryDx=0;entryDy=0;exitX=0;exitY=0.25;exitDx=0;exitDy=0;exitPerimeter=0;" parent="9TmYdh2y9nuFqTiCn1eM-25" source="9TmYdh2y9nuFqTiCn1eM-16" target="9TmYdh2y9nuFqTiCn1eM-26" edge="1">
          <mxGeometry relative="1" as="geometry">
            <mxPoint x="-127" y="134" as="sourcePoint" />
            <mxPoint x="-27" y="134" as="targetPoint" />
          </mxGeometry>
        </mxCell>
        <mxCell id="9TmYdh2y9nuFqTiCn1eM-34" value="Request" style="edgeLabel;resizable=0;html=1;align=center;verticalAlign=middle;fontSize=16;" parent="9TmYdh2y9nuFqTiCn1eM-33" connectable="0" vertex="1">
          <mxGeometry relative="1" as="geometry" />
        </mxCell>
        <object label="App" id="9TmYdh2y9nuFqTiCn1eM-35">
          <mxCell parent="0" />
        </object>
        <mxCell id="9TmYdh2y9nuFqTiCn1eM-52" value="" style="rounded=0;whiteSpace=wrap;html=1;fontSize=16;labelBackgroundColor=none;fillColor=none;" parent="9TmYdh2y9nuFqTiCn1eM-35" vertex="1">
          <mxGeometry x="-28" y="620" width="526" height="172" as="geometry" />
        </mxCell>
        <mxCell id="9TmYdh2y9nuFqTiCn1eM-39" value="" style="group" parent="9TmYdh2y9nuFqTiCn1eM-35" vertex="1" connectable="0">
          <mxGeometry x="15" y="678" width="120" height="60" as="geometry" />
        </mxCell>
        <mxCell id="9TmYdh2y9nuFqTiCn1eM-37" value="" style="rounded=0;whiteSpace=wrap;html=1;fontSize=16;fillColor=none;" parent="9TmYdh2y9nuFqTiCn1eM-39" vertex="1">
          <mxGeometry width="120" height="60" as="geometry" />
        </mxCell>
        <mxCell id="9TmYdh2y9nuFqTiCn1eM-38" value="Backend" style="text;html=1;strokeColor=none;fillColor=none;align=center;verticalAlign=middle;whiteSpace=wrap;rounded=0;fontSize=16;" parent="9TmYdh2y9nuFqTiCn1eM-39" vertex="1">
          <mxGeometry x="10" y="15" width="101" height="30" as="geometry" />
        </mxCell>
        <mxCell id="9TmYdh2y9nuFqTiCn1eM-41" value="" style="group" parent="9TmYdh2y9nuFqTiCn1eM-35" vertex="1" connectable="0">
          <mxGeometry x="316" y="678" width="120" height="60" as="geometry" />
        </mxCell>
        <mxCell id="9TmYdh2y9nuFqTiCn1eM-42" value="" style="rounded=0;whiteSpace=wrap;html=1;fontSize=16;fillColor=none;" parent="9TmYdh2y9nuFqTiCn1eM-41" vertex="1">
          <mxGeometry width="120" height="60" as="geometry" />
        </mxCell>
        <mxCell id="9TmYdh2y9nuFqTiCn1eM-43" value="Frontend" style="text;html=1;strokeColor=none;fillColor=none;align=center;verticalAlign=middle;whiteSpace=wrap;rounded=0;fontSize=16;" parent="9TmYdh2y9nuFqTiCn1eM-41" vertex="1">
          <mxGeometry x="10" y="15" width="101" height="30" as="geometry" />
        </mxCell>
        <mxCell id="9TmYdh2y9nuFqTiCn1eM-48" value="" style="endArrow=classic;html=1;rounded=0;fontSize=12;startSize=8;endSize=8;curved=1;exitX=1;exitY=0.75;exitDx=0;exitDy=0;entryX=-0.039;entryY=0.803;entryDx=0;entryDy=0;entryPerimeter=0;" parent="9TmYdh2y9nuFqTiCn1eM-35" target="9TmYdh2y9nuFqTiCn1eM-42" edge="1">
          <mxGeometry relative="1" as="geometry">
            <mxPoint x="135" y="724" as="sourcePoint" />
            <mxPoint x="408" y="730" as="targetPoint" />
          </mxGeometry>
        </mxCell>
        <mxCell id="9TmYdh2y9nuFqTiCn1eM-49" value="Response" style="edgeLabel;resizable=0;html=1;align=center;verticalAlign=middle;fontSize=16;" parent="9TmYdh2y9nuFqTiCn1eM-48" connectable="0" vertex="1">
          <mxGeometry relative="1" as="geometry" />
        </mxCell>
        <mxCell id="9TmYdh2y9nuFqTiCn1eM-50" value="" style="endArrow=classic;html=1;rounded=0;fontSize=12;startSize=8;endSize=8;curved=1;entryX=1;entryY=0.25;entryDx=0;entryDy=0;exitX=0;exitY=0.25;exitDx=0;exitDy=0;" parent="9TmYdh2y9nuFqTiCn1eM-35" source="9TmYdh2y9nuFqTiCn1eM-42" edge="1">
          <mxGeometry relative="1" as="geometry">
            <mxPoint x="408" y="691" as="sourcePoint" />
            <mxPoint x="135" y="694" as="targetPoint" />
          </mxGeometry>
        </mxCell>
        <mxCell id="9TmYdh2y9nuFqTiCn1eM-51" value="Request" style="edgeLabel;resizable=0;html=1;align=center;verticalAlign=middle;fontSize=16;" parent="9TmYdh2y9nuFqTiCn1eM-50" connectable="0" vertex="1">
          <mxGeometry relative="1" as="geometry" />
        </mxCell>
        <mxCell id="9TmYdh2y9nuFqTiCn1eM-53" value="Wether Record App" style="text;html=1;strokeColor=none;fillColor=none;align=center;verticalAlign=middle;whiteSpace=wrap;rounded=0;fontSize=16;" parent="9TmYdh2y9nuFqTiCn1eM-35" vertex="1">
          <mxGeometry x="141" y="622" width="165" height="30" as="geometry" />
        </mxCell>
        <mxCell id="BEwwNq1oD4Kzmt3JngH2-6" value="" style="endArrow=classic;html=1;rounded=0;fontSize=9;startSize=8;endSize=8;curved=1;entryX=0.789;entryY=-0.008;entryDx=0;entryDy=0;entryPerimeter=0;exitX=0.271;exitY=0.777;exitDx=0;exitDy=0;exitPerimeter=0;" parent="9TmYdh2y9nuFqTiCn1eM-35" source="9TmYdh2y9nuFqTiCn1eM-13" target="9TmYdh2y9nuFqTiCn1eM-37" edge="1">
          <mxGeometry relative="1" as="geometry">
            <mxPoint x="110" y="360" as="sourcePoint" />
            <mxPoint x="321" y="736" as="targetPoint" />
          </mxGeometry>
        </mxCell>
        <mxCell id="BEwwNq1oD4Kzmt3JngH2-7" value="&lt;font style=&quot;font-size: 11px;&quot;&gt;Response&lt;/font&gt;" style="edgeLabel;resizable=0;html=1;align=center;verticalAlign=middle;fontSize=16;" parent="BEwwNq1oD4Kzmt3JngH2-6" connectable="0" vertex="1">
          <mxGeometry relative="1" as="geometry" />
        </mxCell>
        <mxCell id="BEwwNq1oD4Kzmt3JngH2-3" value="" style="endArrow=classic;html=1;rounded=0;exitX=0.25;exitY=0;exitDx=0;exitDy=0;entryX=0.134;entryY=1;entryDx=0;entryDy=0;entryPerimeter=0;" parent="9TmYdh2y9nuFqTiCn1eM-35" target="9TmYdh2y9nuFqTiCn1eM-14" edge="1">
          <mxGeometry relative="1" as="geometry">
            <mxPoint x="50" y="678" as="sourcePoint" />
            <mxPoint x="51.978000000000065" y="361" as="targetPoint" />
          </mxGeometry>
        </mxCell>
        <mxCell id="BEwwNq1oD4Kzmt3JngH2-4" value="Label" style="edgeLabel;resizable=0;html=1;align=center;verticalAlign=middle;" parent="BEwwNq1oD4Kzmt3JngH2-3" connectable="0" vertex="1">
          <mxGeometry relative="1" as="geometry" />
        </mxCell>
        <mxCell id="BEwwNq1oD4Kzmt3JngH2-5" value="Request" style="edgeLabel;html=1;align=center;verticalAlign=middle;resizable=0;points=[];" parent="BEwwNq1oD4Kzmt3JngH2-3" vertex="1" connectable="0">
          <mxGeometry x="0.0067" y="1" relative="1" as="geometry">
            <mxPoint as="offset" />
          </mxGeometry>
        </mxCell>
        <mxCell id="BEwwNq1oD4Kzmt3JngH2-13" value="" style="endArrow=none;html=1;rounded=0;exitX=1;exitY=0.5;exitDx=0;exitDy=0;exitPerimeter=0;entryX=0;entryY=0.5;entryDx=0;entryDy=0;entryPerimeter=0;" parent="9TmYdh2y9nuFqTiCn1eM-35" source="9TmYdh2y9nuFqTiCn1eM-14" target="9TmYdh2y9nuFqTiCn1eM-15" edge="1">
          <mxGeometry width="50" height="50" relative="1" as="geometry">
            <mxPoint x="197" y="379" as="sourcePoint" />
            <mxPoint x="247" y="329" as="targetPoint" />
          </mxGeometry>
        </mxCell>
      </root>
    </mxGraphModel>
  </diagram>
</mxfile>
